<svg width="81" height="81" viewBox="0 0 81 81" fill="none" xmlns="http://www.w3.org/2000/svg">
<path d="M53.2794 51.4244L53.4247 51.5645H53.6265H57.0326L79.3577 73.9343L73.2488 80.0432L50.8789 57.7181V54.312V54.1102L50.7388 53.965L49.5038 52.6842L49.1761 52.3443L48.818 52.6521C43.6907 57.0598 37.0357 59.7126 29.7957 59.7126C13.6511 59.7126 0.564453 46.6259 0.564453 30.4813C0.564453 14.3366 13.6511 1.25 29.7957 1.25C45.9404 1.25 59.027 14.3366 59.027 30.4813C59.027 37.7212 56.3743 44.3762 51.9666 49.5035L51.6588 49.8616L51.9987 50.1894L53.2794 51.4244ZM8.71254 30.4813C8.71254 42.1468 18.1302 51.5645 29.7957 51.5645C41.4612 51.5645 50.8789 42.1468 50.8789 30.4813C50.8789 18.8158 41.4612 9.39808 29.7957 9.39808C18.1302 9.39808 8.71254 18.8158 8.71254 30.4813Z" fill="#DEB5B5" stroke="#DEB5B5"/>
</svg>
